<svg width="136" height="34" viewBox="0 0 136 34" fill="none" xmlns="http://www.w3.org/2000/svg">
<path d="M25.6436 33.9999L17.3261 22.198L9.15626 33.9999H0L12.7458 16.7087L0.638809 0.000686646H9.69512L17.6172 11.0264L25.3959 0.000686646H34.009L22.002 16.4171L34.8477 33.9999H25.6436Z" fill="#F5F5F5"/>
<path d="M12.7463 16.7079L0.639404 -9.15527e-05H9.69571L17.6178 11.0256L12.7463 16.7079ZM22.0026 16.4163L34.8483 33.9991H25.6442L17.3266 22.1972" fill="#89A2AE"/>
<path d="M47.2011 6.41131H36.1762V0H66.2002V6.41131H55.1753V33.9992H47.2011V6.41131Z" fill="#F5F5F5"/>
<path d="M75.0543 31.7049C72.2861 30.2382 70.1177 28.214 68.5532 25.6409C66.9888 23.0635 66.2022 20.1688 66.2022 16.9524C66.2022 13.7361 66.9845 10.8413 68.5532 8.26394C70.1177 5.68655 72.2861 3.66667 75.0543 2.2C77.8225 0.733333 80.9296 0 84.3757 0C87.8218 0 90.9246 0.733333 93.6754 2.2C96.4261 3.66667 98.5946 5.69084 100.176 8.26394C101.758 10.8413 102.549 13.7361 102.549 16.9524C102.549 20.1688 101.758 23.0635 100.176 25.6409C98.5946 28.2183 96.4261 30.2382 93.6754 31.7049C90.9246 33.1715 87.8218 33.9049 84.3757 33.9049C80.9296 33.9049 77.8225 33.1715 75.0543 31.7049ZM89.6904 26.1084C91.2722 25.2164 92.5151 23.977 93.4146 22.386C94.3185 20.7949 94.7661 18.9852 94.7661 16.9524C94.7661 14.924 94.3142 13.1142 93.4146 11.5189C92.5151 9.92787 91.2722 8.68421 89.6904 7.79649C88.1086 6.90877 86.3356 6.46277 84.3757 6.46277C82.4158 6.46277 80.6428 6.90877 79.061 7.79649C77.4792 8.68421 76.2363 9.92787 75.3368 11.5189C74.4372 13.1099 73.9853 14.924 73.9853 16.9524C73.9853 18.9809 74.4372 20.7906 75.3368 22.386C76.2407 23.977 77.4792 25.2207 79.061 26.1084C80.6428 26.9961 82.4158 27.4421 84.3757 27.4421C86.3399 27.4421 88.1086 26.9961 89.6904 26.1084Z" fill="#F5F5F5"/>
<path d="M126.796 33.9992L118.479 22.1973L110.309 33.9992H101.153L113.899 16.708L101.796 0H110.852L118.774 11.0257L126.549 0H135.162L123.155 16.4164L136 33.9992H126.796Z" fill="#F5F5F5"/>
<path d="M118.479 22.1973L110.309 33.9992H101.153L113.899 16.708L118.479 22.1973ZM118.774 11.0257L126.549 0H135.162L123.155 16.4164" fill="#89A2AE"/>
</svg>
